<mxfile host="app.diagrams.net" modified="2024-04-07T09:26:06.444Z" agent="Mozilla/5.0 (Windows NT 10.0; Win64; x64) AppleWebKit/537.36 (KHTML, like Gecko) Chrome/123.0.0.0 Safari/537.36" etag="lHKY3URMDFerPLJyakg1" version="24.2.2" type="device">
  <diagram id="C5RBs43oDa-KdzZeNtuy" name="Page-1">
    <mxGraphModel dx="1050" dy="557" grid="1" gridSize="10" guides="1" tooltips="1" connect="1" arrows="1" fold="1" page="1" pageScale="1" pageWidth="827" pageHeight="1169" math="0" shadow="0">
      <root>
        <mxCell id="WIyWlLk6GJQsqaUBKTNV-0" />
        <mxCell id="WIyWlLk6GJQsqaUBKTNV-1" parent="WIyWlLk6GJQsqaUBKTNV-0" />
        <mxCell id="IMB9fZ2ddiFp-UBROM9v-5" value="" style="edgeStyle=orthogonalEdgeStyle;rounded=0;orthogonalLoop=1;jettySize=auto;html=1;" edge="1" parent="WIyWlLk6GJQsqaUBKTNV-1" source="IMB9fZ2ddiFp-UBROM9v-1" target="IMB9fZ2ddiFp-UBROM9v-2">
          <mxGeometry relative="1" as="geometry" />
        </mxCell>
        <mxCell id="IMB9fZ2ddiFp-UBROM9v-1" value="&lt;b&gt;Start&lt;/b&gt;" style="ellipse;whiteSpace=wrap;html=1;" vertex="1" parent="WIyWlLk6GJQsqaUBKTNV-1">
          <mxGeometry x="290" y="10" width="120" height="80" as="geometry" />
        </mxCell>
        <mxCell id="IMB9fZ2ddiFp-UBROM9v-11" value="" style="edgeStyle=orthogonalEdgeStyle;rounded=0;orthogonalLoop=1;jettySize=auto;html=1;" edge="1" parent="WIyWlLk6GJQsqaUBKTNV-1" source="IMB9fZ2ddiFp-UBROM9v-2" target="IMB9fZ2ddiFp-UBROM9v-10">
          <mxGeometry relative="1" as="geometry" />
        </mxCell>
        <mxCell id="IMB9fZ2ddiFp-UBROM9v-2" value="&lt;b&gt;Enter the Account Number&lt;/b&gt;" style="rounded=1;whiteSpace=wrap;html=1;" vertex="1" parent="WIyWlLk6GJQsqaUBKTNV-1">
          <mxGeometry x="290" y="140" width="120" height="60" as="geometry" />
        </mxCell>
        <mxCell id="IMB9fZ2ddiFp-UBROM9v-13" value="" style="edgeStyle=orthogonalEdgeStyle;rounded=0;orthogonalLoop=1;jettySize=auto;html=1;" edge="1" parent="WIyWlLk6GJQsqaUBKTNV-1" source="IMB9fZ2ddiFp-UBROM9v-10" target="IMB9fZ2ddiFp-UBROM9v-12">
          <mxGeometry relative="1" as="geometry" />
        </mxCell>
        <mxCell id="IMB9fZ2ddiFp-UBROM9v-16" value="" style="edgeStyle=orthogonalEdgeStyle;rounded=0;orthogonalLoop=1;jettySize=auto;html=1;" edge="1" parent="WIyWlLk6GJQsqaUBKTNV-1" source="IMB9fZ2ddiFp-UBROM9v-10" target="IMB9fZ2ddiFp-UBROM9v-15">
          <mxGeometry relative="1" as="geometry" />
        </mxCell>
        <mxCell id="IMB9fZ2ddiFp-UBROM9v-10" value="&lt;b&gt;Is Payee Available?&lt;/b&gt;" style="rhombus;whiteSpace=wrap;html=1;rounded=1;" vertex="1" parent="WIyWlLk6GJQsqaUBKTNV-1">
          <mxGeometry x="290" y="250" width="120" height="100" as="geometry" />
        </mxCell>
        <mxCell id="IMB9fZ2ddiFp-UBROM9v-22" value="" style="edgeStyle=orthogonalEdgeStyle;rounded=0;orthogonalLoop=1;jettySize=auto;html=1;" edge="1" parent="WIyWlLk6GJQsqaUBKTNV-1" source="IMB9fZ2ddiFp-UBROM9v-12" target="IMB9fZ2ddiFp-UBROM9v-21">
          <mxGeometry relative="1" as="geometry" />
        </mxCell>
        <mxCell id="IMB9fZ2ddiFp-UBROM9v-12" value="&lt;b&gt;Display Payees&lt;/b&gt;" style="rounded=1;whiteSpace=wrap;html=1;" vertex="1" parent="WIyWlLk6GJQsqaUBKTNV-1">
          <mxGeometry x="480" y="270" width="120" height="60" as="geometry" />
        </mxCell>
        <mxCell id="IMB9fZ2ddiFp-UBROM9v-14" value="True" style="text;html=1;align=center;verticalAlign=middle;whiteSpace=wrap;rounded=0;" vertex="1" parent="WIyWlLk6GJQsqaUBKTNV-1">
          <mxGeometry x="410" y="270" width="60" height="30" as="geometry" />
        </mxCell>
        <mxCell id="IMB9fZ2ddiFp-UBROM9v-20" value="" style="edgeStyle=orthogonalEdgeStyle;rounded=0;orthogonalLoop=1;jettySize=auto;html=1;" edge="1" parent="WIyWlLk6GJQsqaUBKTNV-1" source="IMB9fZ2ddiFp-UBROM9v-15" target="IMB9fZ2ddiFp-UBROM9v-19">
          <mxGeometry relative="1" as="geometry" />
        </mxCell>
        <mxCell id="IMB9fZ2ddiFp-UBROM9v-15" value="&lt;b&gt;Display no payee available for given account number&lt;/b&gt;" style="rounded=1;whiteSpace=wrap;html=1;" vertex="1" parent="WIyWlLk6GJQsqaUBKTNV-1">
          <mxGeometry x="120" y="270" width="120" height="60" as="geometry" />
        </mxCell>
        <mxCell id="IMB9fZ2ddiFp-UBROM9v-18" value="False" style="text;html=1;align=center;verticalAlign=middle;whiteSpace=wrap;rounded=0;" vertex="1" parent="WIyWlLk6GJQsqaUBKTNV-1">
          <mxGeometry x="240" y="270" width="60" height="30" as="geometry" />
        </mxCell>
        <mxCell id="IMB9fZ2ddiFp-UBROM9v-19" value="&lt;b&gt;End&lt;/b&gt;" style="ellipse;whiteSpace=wrap;html=1;" vertex="1" parent="WIyWlLk6GJQsqaUBKTNV-1">
          <mxGeometry x="120" y="380" width="120" height="80" as="geometry" />
        </mxCell>
        <mxCell id="IMB9fZ2ddiFp-UBROM9v-21" value="&lt;b&gt;End&lt;/b&gt;" style="ellipse;whiteSpace=wrap;html=1;" vertex="1" parent="WIyWlLk6GJQsqaUBKTNV-1">
          <mxGeometry x="480" y="380" width="120" height="80" as="geometry" />
        </mxCell>
      </root>
    </mxGraphModel>
  </diagram>
</mxfile>
